<svg width="2274" height="677" viewBox="0 0 2274 677" fill="none" xmlns="http://www.w3.org/2000/svg">
<g clip-path="url(#clip0_7_10)">
<path d="M2273 312.33V367.165C2273 372.116 2268.97 376.135 2264 376.135H2139.42C2129.66 376.135 2124.73 387.877 2131.59 394.812L2220.64 484.778C2224.18 488.346 2224.09 494.108 2220.45 497.568L2180.89 535.18C2177.35 538.548 2171.76 538.476 2168.3 535.017L2079.8 446.382C2072.88 439.453 2061 444.332 2061 454.123V579.03C2061 583.981 2056.97 588 2052 588H1996.5C1991.53 588 1987.5 583.981 1987.5 579.03V455.317C1987.5 445.573 1975.72 440.673 1968.77 447.507L1879.8 535.037C1876.3 538.478 1870.68 538.486 1867.18 535.055L1828.72 497.44C1825.21 494.014 1825.11 488.421 1828.49 484.869L1914.23 394.652C1920.88 387.656 1915.9 376.135 1906.25 376.135H1784C1779.03 376.135 1775 372.116 1775 367.165V312.33C1775 307.378 1779.03 303.359 1784 303.359L1909.43 303.36C1919.22 303.36 1924.14 291.571 1917.23 284.649L1828.71 196.008C1825.23 192.515 1825.22 186.871 1828.7 183.369L1867.14 144.678C1870.65 141.145 1876.37 141.132 1879.9 144.648L1968.72 233.207C1975.65 240.111 1987.5 235.227 1987.5 225.449V98.9701C1987.5 94.0189 1991.53 90 1996.5 90H2052C2056.97 90 2061 94.0189 2061 98.9701V225.373C2061 235.163 2072.88 240.042 2079.8 233.114L2168.07 144.709C2171.61 141.169 2177.36 141.189 2180.87 144.754L2220.78 185.281C2224.26 188.815 2224.21 194.492 2220.67 197.962L2132.24 284.563C2125.21 291.449 2130.11 303.36 2139.95 303.36L2264 303.359C2268.97 303.359 2273 307.378 2273 312.33Z" fill="#CEE051" stroke="#CEE051" stroke-width="2"/>
</g>
<path d="M76.8 174.464C69.9733 174.464 64.8533 174.976 61.44 176C58.368 176.683 55.6373 178.219 53.248 180.608C51.2 182.656 49.3227 185.557 47.616 189.312C46.2507 192.725 45.568 195.968 45.568 199.04L17.408 198.528C18.0907 182.485 23.2107 169.685 32.768 160.128C37.888 155.349 43.8613 151.936 50.688 149.888C57.856 147.499 66.7307 146.133 77.312 145.792H187.392C218.112 145.792 242.176 155.861 259.584 176C276.992 196.139 285.696 222.251 285.696 254.336C285.696 278.571 280.576 299.051 270.336 315.776C260.096 332.16 246.443 344.448 229.376 352.64C212.309 360.491 193.365 364.416 172.544 364.416C163.669 364.416 151.04 363.563 134.656 361.856V334.208C150.699 335.232 162.475 335.744 169.984 335.744C226.645 335.744 254.976 308.779 254.976 254.848C254.976 228.224 248.32 208.256 235.008 194.944C221.696 181.291 203.435 174.464 180.224 174.464H107.52V496.512H76.8V174.464ZM428.62 501.12C405.068 501.12 384.929 495.147 368.204 483.2C351.479 471.253 338.849 455.381 330.316 435.584C321.783 415.787 317.516 393.941 317.516 370.048C317.516 343.765 322.636 320.555 332.876 300.416C343.116 279.936 357.793 264.064 376.908 252.8C396.023 241.536 418.38 235.904 443.98 235.904C451.831 235.904 461.729 236.416 473.676 237.44C485.623 238.123 496.204 239.147 505.42 240.512H536.14V451.968C536.14 458.795 537.676 464.085 540.748 467.84C544.161 471.253 548.257 472.96 553.036 472.96C559.18 472.96 564.129 470.059 567.884 464.256L589.9 481.664C584.78 488.832 578.977 493.781 572.492 496.512C566.348 499.584 559.18 501.12 550.988 501.12C539.041 501.12 528.46 497.024 519.244 488.832C510.369 480.64 505.932 470.741 505.932 459.136C497.74 472.789 486.988 483.2 473.676 490.368C460.364 497.536 445.345 501.12 428.62 501.12ZM429.132 473.472C444.492 473.472 458.316 469.717 470.604 462.208C482.892 454.699 492.108 444.8 498.252 432.512C503.031 422.613 505.42 411.691 505.42 399.744V265.6L471.628 264.576L441.932 263.552C410.871 263.552 387.489 273.28 371.788 292.736C356.087 312.192 348.236 337.621 348.236 369.024C348.236 398.037 355.063 422.784 368.716 443.264C382.711 463.403 402.849 473.472 429.132 473.472ZM831.628 240L831.116 425.344V554.368C831.116 580.651 824.119 601.643 810.124 617.344C796.129 633.387 777.527 641.408 754.316 641.408C739.98 641.408 726.839 637.824 714.892 630.656C703.287 623.829 694.071 614.272 687.244 601.984C680.759 589.696 677.516 575.872 677.516 560.512C677.516 546.517 680.076 534.059 685.196 523.136C690.657 512.213 697.996 504.363 707.212 499.584C684.343 497.877 666.081 490.368 652.428 477.056C638.775 463.403 631.948 445.995 631.948 424.832V313.728C631.948 286.763 624.78 266.965 610.444 254.336L630.924 233.856C638.775 238.976 645.943 246.827 652.428 257.408C658.913 267.989 662.327 279.424 662.668 291.712V411.52C662.668 431.659 667.105 446.677 675.98 456.576C685.196 466.475 699.02 471.424 717.452 471.424C732.471 471.424 745.783 468.181 757.388 461.696C769.335 455.211 781.281 444.629 793.228 429.952C795.959 426.197 797.836 422.955 798.86 420.224C799.884 417.152 800.396 413.056 800.396 407.936L800.908 240H831.628ZM801.42 456.064C796.983 463.232 792.887 468.864 789.132 472.96C785.377 476.715 780.94 480.64 775.82 484.736C766.604 491.221 756.364 497.536 745.1 503.68C731.447 510.848 721.719 518.699 715.916 527.232C710.113 535.765 707.212 546.517 707.212 559.488C707.212 575.531 711.308 588.16 719.5 597.376C728.033 606.933 739.468 611.712 753.804 611.712C767.799 611.712 778.892 606.763 787.084 596.864C795.617 586.965 800.055 573.483 800.396 556.416L801.42 456.064ZM1005.12 501.12C981.909 501.12 961.941 495.317 945.216 483.712C928.491 471.765 915.691 455.893 906.816 436.096C898.283 415.957 894.016 393.941 894.016 370.048C894.016 344.107 899.136 321.067 909.376 300.928C919.616 280.448 934.123 264.576 952.896 253.312C972.011 241.707 994.368 235.904 1019.97 235.904C1027.82 235.904 1037.72 236.416 1049.66 237.44C1061.61 238.123 1072.19 239.147 1081.41 240.512V123.776H1112.13L1111.62 451.968C1111.62 458.795 1113.15 464.085 1116.22 467.84C1119.64 471.253 1123.73 472.96 1128.51 472.96C1134.66 472.96 1139.61 470.059 1143.36 464.256L1165.38 481.664C1160.26 488.832 1154.45 493.781 1147.97 496.512C1141.82 499.584 1134.66 501.12 1126.46 501.12C1114.52 501.12 1103.94 497.024 1094.72 488.832C1085.85 480.64 1081.41 470.741 1081.41 459.136C1073.22 472.789 1062.46 483.2 1049.15 490.368C1036.18 497.536 1021.5 501.12 1005.12 501.12ZM1006.66 473.472C1021.67 473.472 1034.99 469.888 1046.59 462.72C1058.54 455.552 1067.75 445.483 1074.24 432.512C1079.02 422.955 1081.41 412.032 1081.41 399.744V267.648L1070.66 266.112C1054.61 263.723 1041.3 262.528 1030.72 262.528C993.173 262.528 966.037 271.915 949.312 290.688C932.928 309.12 924.736 334.379 924.736 366.464C924.736 397.184 931.904 422.784 946.24 443.264C960.917 463.403 981.056 473.472 1006.66 473.472ZM1295.12 501.12C1271.57 501.12 1251.43 495.147 1234.7 483.2C1217.98 471.253 1205.35 455.381 1196.82 435.584C1188.28 415.787 1184.02 393.941 1184.02 370.048C1184.02 343.765 1189.14 320.555 1199.38 300.416C1209.62 279.936 1224.29 264.064 1243.41 252.8C1262.52 241.536 1284.88 235.904 1310.48 235.904C1318.33 235.904 1328.23 236.416 1340.18 237.44C1352.12 238.123 1362.7 239.147 1371.92 240.512H1402.64V451.968C1402.64 458.795 1404.18 464.085 1407.25 467.84C1410.66 471.253 1414.76 472.96 1419.54 472.96C1425.68 472.96 1430.63 470.059 1434.38 464.256L1456.4 481.664C1451.28 488.832 1445.48 493.781 1438.99 496.512C1432.85 499.584 1425.68 501.12 1417.49 501.12C1405.54 501.12 1394.96 497.024 1385.74 488.832C1376.87 480.64 1372.43 470.741 1372.43 459.136C1364.24 472.789 1353.49 483.2 1340.18 490.368C1326.86 497.536 1311.85 501.12 1295.12 501.12ZM1295.63 473.472C1310.99 473.472 1324.82 469.717 1337.1 462.208C1349.39 454.699 1358.61 444.8 1364.75 432.512C1369.53 422.613 1371.92 411.691 1371.92 399.744V265.6L1338.13 264.576L1308.43 263.552C1277.37 263.552 1253.99 273.28 1238.29 292.736C1222.59 312.192 1214.74 337.621 1214.74 369.024C1214.74 398.037 1221.56 422.784 1235.22 443.264C1249.21 463.403 1269.35 473.472 1295.63 473.472ZM1698.13 240L1697.62 425.344V554.368C1697.62 580.651 1690.62 601.643 1676.62 617.344C1662.63 633.387 1644.03 641.408 1620.82 641.408C1606.48 641.408 1593.34 637.824 1581.39 630.656C1569.79 623.829 1560.57 614.272 1553.74 601.984C1547.26 589.696 1544.02 575.872 1544.02 560.512C1544.02 546.517 1546.58 534.059 1551.7 523.136C1557.16 512.213 1564.5 504.363 1573.71 499.584C1550.84 497.877 1532.58 490.368 1518.93 477.056C1505.27 463.403 1498.45 445.995 1498.45 424.832V313.728C1498.45 286.763 1491.28 266.965 1476.94 254.336L1497.42 233.856C1505.27 238.976 1512.44 246.827 1518.93 257.408C1525.41 267.989 1528.83 279.424 1529.17 291.712V411.52C1529.17 431.659 1533.61 446.677 1542.48 456.576C1551.7 466.475 1565.52 471.424 1583.95 471.424C1598.97 471.424 1612.28 468.181 1623.89 461.696C1635.83 455.211 1647.78 444.629 1659.73 429.952C1662.46 426.197 1664.34 422.955 1665.36 420.224C1666.38 417.152 1666.9 413.056 1666.9 407.936L1667.41 240H1698.13ZM1667.92 456.064C1663.48 463.232 1659.39 468.864 1655.63 472.96C1651.88 476.715 1647.44 480.64 1642.32 484.736C1633.1 491.221 1622.86 497.536 1611.6 503.68C1597.95 510.848 1588.22 518.699 1582.42 527.232C1576.61 535.765 1573.71 546.517 1573.71 559.488C1573.71 575.531 1577.81 588.16 1586 597.376C1594.53 606.933 1605.97 611.712 1620.3 611.712C1634.3 611.712 1645.39 606.763 1653.58 596.864C1662.12 586.965 1666.55 573.483 1666.9 556.416L1667.92 456.064Z" fill="black"/>
<defs>
<clipPath id="clip0_7_10">
<rect width="500" height="500" fill="white" transform="translate(1774 89)"/>
</clipPath>
</defs>
</svg>
