<svg width="500" height="500" viewBox="0 0 500 500" fill="none" xmlns="http://www.w3.org/2000/svg">
<path d="M499 223.33V278.165C499 283.116 494.973 287.135 490 287.135H365.419C355.659 287.135 350.726 298.877 357.591 305.812L446.644 395.778C450.176 399.346 450.089 405.108 446.45 408.568L406.894 446.18C403.351 449.548 397.756 449.476 394.302 446.017L305.795 357.382C298.876 350.453 287 355.332 287 365.123V490.03C287 494.981 282.974 499 278 499H222.5C217.527 499 213.5 494.981 213.5 490.03V366.317C213.5 356.573 201.722 351.673 194.775 358.507L105.802 446.037C102.304 449.478 96.6839 449.486 93.1761 446.055L54.7158 408.44C51.2121 405.014 51.1098 399.421 54.4855 395.869L140.231 305.652C146.88 298.656 141.9 287.135 132.248 287.135H10C5.02663 287.135 1 283.116 1 278.165V223.33C1 218.378 5.02663 214.359 10 214.359L135.433 214.36C145.216 214.36 150.14 202.571 143.228 195.649L54.7143 107.008C51.226 103.515 51.2189 97.8706 54.6983 94.3686L93.1387 55.6781C96.6487 52.1453 102.372 52.1318 105.899 55.648L194.723 144.207C201.649 151.111 213.5 146.227 213.5 136.449V9.97009C213.5 5.01887 217.527 1 222.5 1H278C282.974 1 287 5.01887 287 9.97009V136.373C287 146.163 298.876 151.042 305.795 144.114L394.072 55.7095C397.607 52.169 403.363 52.1889 406.874 55.7539L446.784 96.281C450.264 99.8152 450.212 105.492 446.668 108.962L358.243 195.563C351.212 202.449 356.109 214.36 365.951 214.36L490 214.359C494.973 214.359 499 218.378 499 223.33Z" fill="#CEE051" stroke="#CEE051" stroke-width="2"/>
</svg>
